<svg xmlns="http://www.w3.org/2000/svg" viewBox="0 0 1440 720"><defs><style>.cls-1{fill:#bbc0c5;}.cls-2{fill:#52575b;}.cls-3{fill:#868e96;}.cls-4{fill:#dee2e6;}.cls-5{fill:#f8f9fa;}.cls-6{fill:#fff;}.cls-7{opacity:0.2;}</style></defs><title>sudhaus_adipraese</title><g id="house"><path class="cls-1" d="M349,284.52h252.5s25.28-6.75,26.52-37.9-25.43-49-40.12-48.16-41.13,18.27-42.23,48.16c-7.33-10-4.54-26.39-29.61-26.27s-33.78,38.94-33.78,38.94-1.71-18-17.05-17.81S440,269.33,440,269.33s-36.41-2.32-49.83,2.57S331.6,278.83,349,284.52Z"/><path class="cls-1" d="M724.3,293l352,.08s35.68-5,33.81-37.88-40.37-39.62-40.37-39.62-38.44-.41-38.27,29.32c-13.84-29.12-20.11-55.55-51.07-55s-64.6,20.53-75.82,54.93c-14-8.57-55.11-18.72-71,14.77-16.82-2.8-34.57-11.85-33.64,21.17-54.19,3.1-100-.06-103.7,5.25S690.66,292.87,724.3,293Z"/><polygon class="cls-2" points="409.6 340.3 352.64 340.3 352.64 402.99 392.72 402.99 409.6 340.3"/><path class="cls-2" d="M352.64,336.62c-.46-1.14,0-10.33,0-10.33H340v69.12h-8.34v21.13h12.78V406.21h8.19Z"/><polygon class="cls-3" points="904.19 322.92 415.67 322.92 378.19 353.54 344.45 406.21 904.19 406.21 904.19 322.92"/><polygon class="cls-4" points="344.45 711.92 344.45 406.21 858.87 406.21 858.87 711.95 344.45 711.92"/><rect class="cls-2" x="338.86" y="402.99" width="505.13" height="13.55"/><path class="cls-2" d="M659.38,711.88l112.07,1V612.41H659.38v99.47"/><rect class="cls-3" x="659.38" y="681.79" width="19.64" height="30.77"/><polygon class="cls-4" points="763.34 711.92 763.34 471.12 1065.86 471.12 1065.86 707.97 763.34 711.92"/><rect class="cls-3" x="344.45" y="611.68" width="418.88" height="5.16"/><path class="cls-5" d="M380.74,461.89h18.37s2.3-27.55-9.18-27.55S380.74,461.89,380.74,461.89Z"/><path class="cls-3" d="M400.3,463.18H379.55l-.1-1.18c-.06-.8-1.55-19.54,4.74-26.38a7.66,7.66,0,0,1,11.47,0c6.29,6.84,4.8,25.58,4.74,26.38ZM382,460.6H397.9c.22-4.16.56-18.12-4.14-23.23a5.05,5.05,0,0,0-7.67,0C381.39,442.48,381.73,456.44,382,460.6Z"/><path class="cls-5" d="M446.37,461.89h18.38s2.29-27.55-9.19-27.55S446.37,461.89,446.37,461.89Z"/><path class="cls-3" d="M465.93,463.18H445.19l-.1-1.18c-.07-.8-1.55-19.54,4.74-26.38a7.65,7.65,0,0,1,11.46,0c6.29,6.84,4.81,25.58,4.74,26.38Zm-18.34-2.58h15.94c.22-4.16.57-18.12-4.14-23.23a5,5,0,0,0-7.66,0C447,442.48,447.37,456.44,447.59,460.6Z"/><path class="cls-5" d="M514.83,461.89H533.2s2.3-27.55-9.18-27.55S514.83,461.89,514.83,461.89Z"/><path class="cls-3" d="M534.39,463.18H513.64l-.09-1.18c-.07-.8-1.55-19.54,4.73-26.38a7.66,7.66,0,0,1,11.47,0c6.29,6.84,4.8,25.58,4.74,26.38ZM516,460.6h16c.22-4.16.56-18.12-4.14-23.23a5.05,5.05,0,0,0-7.67,0C515.48,442.48,515.83,456.44,516,460.6Z"/><path class="cls-5" d="M679.16,461.89h18.38s2.29-27.55-9.19-27.55S679.16,461.89,679.16,461.89Z"/><path class="cls-3" d="M698.72,463.18H678l-.1-1.18c-.07-.8-1.55-19.54,4.74-26.38a7.65,7.65,0,0,1,11.46,0c6.29,6.84,4.81,25.58,4.74,26.38Zm-18.34-2.58h16c.21-4.16.55-18.12-4.15-23.23a5,5,0,0,0-7.66,0C679.82,442.48,680.16,456.44,680.38,460.6Z"/><path class="cls-5" d="M719.46,461.89h18.37s2.3-27.55-9.19-27.55S719.46,461.89,719.46,461.89Z"/><path class="cls-3" d="M739,463.18H718.27l-.1-1.18c-.06-.8-1.55-19.54,4.74-26.38a7.66,7.66,0,0,1,11.47,0c6.29,6.84,4.8,25.58,4.73,26.38Zm-18.35-2.58h16c.21-4.16.56-18.12-4.14-23.23a5.05,5.05,0,0,0-7.67,0C720.11,442.48,720.45,456.44,720.67,460.6Z"/><path class="cls-5" d="M679.16,531.42h18.38s2.29-27.56-9.19-27.56S679.16,531.42,679.16,531.42Z"/><path class="cls-3" d="M698.72,532.71H678l-.1-1.18c-.07-.8-1.55-19.54,4.74-26.38a7.65,7.65,0,0,1,11.46,0c6.29,6.84,4.81,25.58,4.74,26.38Zm-18.34-2.58h16c.21-4.16.55-18.12-4.15-23.23a5,5,0,0,0-7.66,0C679.82,512,680.16,526,680.38,530.13Z"/><path class="cls-5" d="M719.46,531.42h18.37s2.3-27.56-9.19-27.56S719.46,531.42,719.46,531.42Z"/><path class="cls-3" d="M739,532.71H718.27l-.1-1.18c-.06-.8-1.55-19.54,4.74-26.38a7.66,7.66,0,0,1,11.47,0c6.29,6.84,4.8,25.58,4.73,26.38Zm-18.35-2.58h16c.21-4.16.56-18.12-4.14-23.23a5.05,5.05,0,0,0-7.67,0C720.11,512,720.45,526,720.67,530.13Z"/><path class="cls-5" d="M380.74,531.42h18.37s2.3-27.56-9.18-27.56S380.74,531.42,380.74,531.42Z"/><path class="cls-3" d="M400.3,532.71H379.55l-.1-1.18c-.06-.8-1.55-19.54,4.74-26.38a7.66,7.66,0,0,1,11.47,0c6.29,6.84,4.8,25.58,4.74,26.38ZM382,530.13H397.9c.22-4.16.56-18.12-4.14-23.23a5.05,5.05,0,0,0-7.67,0C381.39,512,381.73,526,382,530.13Z"/><path class="cls-5" d="M446.37,531.42h18.38s2.29-27.56-9.19-27.56S446.37,531.42,446.37,531.42Z"/><path class="cls-3" d="M465.93,532.71H445.19l-.1-1.18c-.07-.8-1.55-19.54,4.74-26.38a7.65,7.65,0,0,1,11.46,0c6.29,6.84,4.81,25.58,4.74,26.38Zm-18.34-2.58h15.94c.22-4.16.57-18.12-4.14-23.23a5,5,0,0,0-7.66,0C447,512,447.37,526,447.59,530.13Z"/><path class="cls-5" d="M514.83,531.42H533.2s2.3-27.56-9.18-27.56S514.83,531.42,514.83,531.42Z"/><path class="cls-3" d="M534.39,532.71H513.64l-.09-1.18c-.07-.8-1.55-19.54,4.73-26.38a7.66,7.66,0,0,1,11.47,0c6.29,6.84,4.8,25.58,4.74,26.38ZM516,530.13h16c.22-4.16.56-18.12-4.14-23.23a5.05,5.05,0,0,0-7.67,0C515.48,512,515.83,526,516,530.13Z"/><path class="cls-5" d="M380.74,601h18.37s2.3-27.56-9.18-27.56S380.74,601,380.74,601Z"/><path class="cls-3" d="M400.3,602.24H379.55l-.1-1.18c-.06-.8-1.55-19.54,4.74-26.38a7.66,7.66,0,0,1,11.47,0c6.29,6.84,4.8,25.58,4.74,26.38ZM382,599.66H397.9c.22-4.16.56-18.12-4.14-23.23a5.05,5.05,0,0,0-7.67,0C381.39,581.54,381.73,595.5,382,599.66Z"/><path class="cls-5" d="M446.37,601h18.38s2.29-27.56-9.19-27.56S446.37,601,446.37,601Z"/><path class="cls-3" d="M465.93,602.24H445.19l-.1-1.18c-.07-.8-1.55-19.54,4.74-26.38a7.65,7.65,0,0,1,11.46,0c6.29,6.84,4.81,25.58,4.74,26.38Zm-18.34-2.58h15.94c.22-4.16.57-18.12-4.14-23.23a5,5,0,0,0-7.66,0C447,581.54,447.37,595.5,447.59,599.66Z"/><path class="cls-5" d="M380.74,668.42h18.37s2.3-27.56-9.18-27.56S380.74,668.42,380.74,668.42Z"/><path class="cls-3" d="M400.3,669.71H379.55l-.1-1.19c-.06-.79-1.55-19.54,4.74-26.37a7.66,7.66,0,0,1,11.47,0c6.29,6.83,4.8,25.58,4.74,26.37ZM382,667.13H397.9c.22-4.16.56-18.13-4.14-23.24a5.07,5.07,0,0,0-7.67,0C381.39,649,381.73,663,382,667.13Z"/><path class="cls-5" d="M446.37,668.42h18.38s2.29-27.56-9.19-27.56S446.37,668.42,446.37,668.42Z"/><path class="cls-3" d="M465.93,669.71H445.19l-.1-1.19c-.07-.79-1.55-19.54,4.74-26.37a7.65,7.65,0,0,1,11.46,0c6.29,6.83,4.81,25.58,4.74,26.37Zm-18.34-2.58h15.94c.22-4.16.57-18.13-4.14-23.24a5.06,5.06,0,0,0-7.66,0C447,649,447.37,663,447.59,667.13Z"/><path class="cls-5" d="M514.83,601H533.2s2.3-27.56-9.18-27.56S514.83,601,514.83,601Z"/><path class="cls-3" d="M534.39,602.24H513.64l-.09-1.18c-.07-.8-1.55-19.54,4.73-26.38a7.66,7.66,0,0,1,11.47,0c6.29,6.84,4.8,25.58,4.74,26.38ZM516,599.66h16c.22-4.16.56-18.12-4.14-23.23a5.05,5.05,0,0,0-7.67,0C515.48,581.54,515.83,595.5,516,599.66Z"/><rect class="cls-5" x="719.23" y="379.41" width="18.83" height="17.3"/><path class="cls-2" d="M739.35,398H717.94V378.12h21.41Zm-18.83-2.58h16.25V380.7H720.52Z"/><polygon class="cls-2" points="714.98 383.09 742.31 383.09 738.86 370.69 718.65 370.69 714.98 383.09"/><rect class="cls-5" x="678.93" y="379.41" width="18.83" height="17.3"/><path class="cls-2" d="M699.06,398H677.64V378.12h21.42Zm-18.84-2.58h16.26V380.7H680.22Z"/><polygon class="cls-2" points="674.69 383.09 702.01 383.09 698.57 370.69 678.36 370.69 674.69 383.09"/><rect class="cls-5" x="514.6" y="379.41" width="18.83" height="17.3"/><path class="cls-2" d="M534.72,398H513.31V378.12h21.41Zm-18.83-2.58h16.25V380.7H515.89Z"/><polygon class="cls-2" points="510.35 383.09 537.68 383.09 534.24 370.69 514.03 370.69 510.35 383.09"/><rect class="cls-5" x="446.14" y="379.41" width="18.83" height="17.3"/><path class="cls-2" d="M466.27,398H444.86V378.12h21.41Zm-18.83-2.58h16.25V380.7H447.44Z"/><polygon class="cls-2" points="441.9 383.09 469.23 383.09 465.78 370.69 445.57 370.69 441.9 383.09"/><rect class="cls-5" x="380.51" y="379.41" width="18.83" height="17.3"/><path class="cls-2" d="M400.63,398H379.22V378.12h21.41Zm-18.83-2.58h16.25V380.7H381.8Z"/><polygon class="cls-2" points="376.26 383.09 403.59 383.09 400.14 370.69 379.94 370.69 376.26 383.09"/><polygon class="cls-3" points="558.79 681.79 509.56 681.79 509.56 692.81 496.33 692.81 496.33 705.67 478.57 705.67 478.57 711.92 558.79 711.92 558.79 681.79"/><path class="cls-5" d="M790.17,529.3h18.37s2.3-27.56-9.19-27.56S790.17,529.3,790.17,529.3Z"/><path class="cls-3" d="M809.72,530.59H789l-.1-1.18c-.06-.8-1.55-19.54,4.74-26.38a7.66,7.66,0,0,1,11.47,0c6.29,6.84,4.8,25.58,4.73,26.38ZM791.38,528h16c.21-4.16.56-18.12-4.14-23.23a5.05,5.05,0,0,0-7.67,0C790.82,509.89,791.16,523.85,791.38,528Z"/><path class="cls-5" d="M907.93,529.3H926.3s2.3-27.56-9.19-27.56S907.93,529.3,907.93,529.3Z"/><path class="cls-3" d="M927.49,530.59H906.74l-.1-1.18c-.07-.8-1.55-19.54,4.74-26.38a7.65,7.65,0,0,1,11.46,0c6.29,6.84,4.81,25.58,4.74,26.38ZM909.14,528h16c.21-4.16.56-18.12-4.15-23.23a5,5,0,0,0-7.66,0C908.58,509.89,908.92,523.85,909.14,528Z"/><path class="cls-5" d="M966.63,529.3H985s2.3-27.56-9.18-27.56S966.63,529.3,966.63,529.3Z"/><path class="cls-3" d="M986.19,530.59H965.45l-.1-1.18c-.07-.8-1.55-19.54,4.74-26.38a7.65,7.65,0,0,1,11.46,0c6.29,6.84,4.81,25.58,4.74,26.38ZM967.84,528h15.95c.22-4.16.56-18.12-4.14-23.23a5,5,0,0,0-7.66,0C967.28,509.89,967.63,523.85,967.84,528Z"/><path class="cls-5" d="M849.22,529.3h18.37s2.3-27.56-9.18-27.56S849.22,529.3,849.22,529.3Z"/><path class="cls-3" d="M868.78,530.59H848l-.09-1.18c-.07-.8-1.55-19.54,4.74-26.38a7.65,7.65,0,0,1,11.46,0c6.29,6.84,4.81,25.58,4.74,26.38ZM850.43,528h16c.22-4.16.56-18.12-4.14-23.23a5,5,0,0,0-7.66,0C849.87,509.89,850.22,523.85,850.43,528Z"/><path class="cls-5" d="M1029.79,529.3h18.37s2.3-27.56-9.19-27.56S1029.79,529.3,1029.79,529.3Z"/><path class="cls-3" d="M1049.35,530.59H1028.6l-.1-1.18c-.06-.8-1.55-19.54,4.74-26.38a7.66,7.66,0,0,1,11.47,0c6.29,6.84,4.8,25.58,4.73,26.38ZM1031,528h16c.21-4.16.56-18.12-4.14-23.23a5.05,5.05,0,0,0-7.67,0C1030.44,509.89,1030.78,523.85,1031,528Z"/><rect class="cls-3" x="779.81" y="545.38" width="39.09" height="147.44"/><rect class="cls-3" x="1010.06" y="545.38" width="39.09" height="147.44"/><rect class="cls-5" x="897.57" y="545.38" width="39.09" height="147.44"/><path class="cls-3" d="M938,694.1H896.28v-150H938Zm-39.09-2.58h36.5V546.67h-36.5Z"/><rect class="cls-3" x="897.76" y="573.71" width="38.87" height="2.58"/><rect class="cls-3" x="898.9" y="602.65" width="36.75" height="2.58"/><rect class="cls-3" x="898.45" y="631.58" width="37.94" height="2.58"/><rect class="cls-3" x="898.68" y="661.9" width="38.36" height="2.58"/><rect class="cls-3" x="915.82" y="546.52" width="2.58" height="147.21"/><rect class="cls-5" x="839.14" y="545.38" width="39.09" height="147.44"/><path class="cls-3" d="M879.51,694.1H837.85v-150h41.66Zm-39.08-2.58h36.5V546.67h-36.5Z"/><rect class="cls-3" x="839.32" y="573.71" width="38.87" height="2.58"/><rect class="cls-3" x="840.47" y="602.65" width="36.75" height="2.58"/><rect class="cls-3" x="840.01" y="631.58" width="37.94" height="2.58"/><rect class="cls-3" x="840.24" y="661.9" width="38.36" height="2.58"/><rect class="cls-3" x="857.39" y="546.52" width="2.58" height="147.21"/><rect class="cls-5" x="958.2" y="545.38" width="39.09" height="147.44"/><path class="cls-3" d="M998.57,694.1H956.91v-150h41.66Zm-39.08-2.58H996V546.67h-36.5Z"/><rect class="cls-3" x="958.38" y="573.71" width="38.87" height="2.58"/><rect class="cls-3" x="959.53" y="602.65" width="36.75" height="2.58"/><rect class="cls-3" x="959.07" y="631.58" width="37.94" height="2.58"/><rect class="cls-3" x="959.3" y="661.9" width="38.36" height="2.58"/><rect class="cls-3" x="976.45" y="546.52" width="2.58" height="147.21"/><polygon class="cls-2" points="858.87 276.68 843.1 276.68 843.1 390.29 856.88 390.29 858.87 276.68"/><polygon class="cls-3" points="906.64 309.45 763.34 471.12 1065.86 471.12 906.64 309.45"/><rect class="cls-2" x="759.57" y="459.55" width="311.19" height="13.34"/><rect class="cls-5" x="428.24" y="340.3" width="105.2" height="14.47"/><path class="cls-2" d="M534.72,356.06H427V339H534.72Zm-105.19-2.58H532.14V341.59H429.53Z"/><rect class="cls-2" x="443.29" y="340.68" width="2.58" height="12.89"/><rect class="cls-2" x="464.11" y="340.37" width="2.58" height="14.73"/><rect class="cls-2" x="484.01" y="340.37" width="2.58" height="15.03"/><rect class="cls-2" x="507.29" y="340.07" width="2.58" height="15.34"/><polygon class="cls-2" points="421.36 342.44 540.31 342.44 534.95 333.53 427.72 333.53 421.36 342.44"/><polygon class="cls-2" points="931.54 480.6 931.54 429.27 892.5 428.39 892.45 480.6 931.54 480.6"/><polygon class="cls-5" points="900.97 432.98 900.97 470.49 923.02 470.49 923.02 432.83 900.97 432.98"/><path class="cls-3" d="M924.31,471.78H899.68V431.7l24.63-.17Zm-22-2.58h19.47V434.13l-19.47.13Z"/><polygon class="cls-2" points="890.56 430.99 933.74 430.99 932.06 425.87 911.04 406.21 891.24 426.52 890.56 430.99"/><rect class="cls-3" x="910.7" y="433.99" width="2.58" height="35.82"/><rect class="cls-3" x="901.12" y="456.05" width="21.31" height="2.58"/><rect class="cls-3" x="901.12" y="443.27" width="21.31" height="2.58"/><rect class="cls-4" x="558.51" y="302.28" width="100.59" height="413.41"/><polygon class="cls-3" points="554.5 302.56 559.85 280.54 571.18 263.52 647.55 263.52 658.18 283.04 663.67 302.56 554.5 302.56"/><path class="cls-3" d="M599.9,455.35h18.37s2.3-27.56-9.18-27.56S599.9,455.35,599.9,455.35Z"/><path class="cls-3" d="M599.9,593.72h18.37s2.3-27.56-9.18-27.56S599.9,593.72,599.9,593.72Z"/><rect class="cls-5" x="599.67" y="280.25" width="18.83" height="17.3"/><path class="cls-2" d="M619.79,298.84H598.38V279h21.41ZM601,296.26h16.25V281.54H601Z"/><polygon class="cls-2" points="595.42 283.92 622.75 283.92 619.3 271.52 599.1 271.52 595.42 283.92"/><rect class="cls-2" x="554.51" y="302.56" width="109.16" height="6.67"/><rect class="cls-2" x="838.53" y="274.62" width="24.91" height="4.13"/><path class="cls-5" d="M595.81,660.67a10.16,10.16,0,0,0-20.31,0h0v43.18h20.31V660.67Z"/><path class="cls-3" d="M597.1,705.14H574.21V660.67a11.45,11.45,0,0,1,22.89,0Zm-20.31-2.58h17.73V660.67a8.87,8.87,0,0,0-17.73,0Z"/><rect class="cls-3" x="575.5" y="670.17" width="20.26" height="2.58"/><rect class="cls-3" x="575.5" y="659.49" width="20.26" height="2.58"/><rect class="cls-3" x="576.19" y="681.07" width="19.07" height="2.58"/><rect class="cls-3" x="575.96" y="691.81" width="19.3" height="2.58"/><rect class="cls-3" x="584.36" y="660.09" width="2.58" height="43.41"/><path class="cls-5" d="M550.69,639.4a10.16,10.16,0,1,0-20.31,0h0v43.18h20.31V639.4Z"/><path class="cls-3" d="M552,683.87H529.09V639.4a11.45,11.45,0,1,1,22.89,0Zm-20.31-2.58H549.4V639.4a8.87,8.87,0,1,0-17.73,0Z"/><rect class="cls-3" x="530.38" y="648.89" width="20.26" height="2.58"/><rect class="cls-3" x="530.38" y="638.22" width="20.26" height="2.58"/><rect class="cls-3" x="531.06" y="659.8" width="19.07" height="2.58"/><rect class="cls-3" x="530.84" y="670.54" width="19.3" height="2.58"/><rect class="cls-3" x="539.24" y="638.82" width="2.58" height="43.41"/><rect class="cls-2" x="329.79" y="705.34" width="749.49" height="32.16"/><path class="cls-3" d="M585.62,355.68v37.75s2.09,18.74,22,18.74c20.92,0,23.94-18.74,23.94-18.74V355.68Z"/><path class="cls-6" d="M608.59,371.43a18,18,0,1,0,18,18A18,18,0,0,0,608.59,371.43Z"/><polygon class="cls-3" points="625.51 344.1 625.51 351.49 614.83 351.49 614.83 344.1 603.74 344.1 603.74 351.49 591.68 351.49 591.68 344.1 580.6 344.1 580.6 351.49 580.6 359.37 591.68 359.37 603.74 359.37 614.83 359.37 625.51 359.37 636.6 359.37 636.6 351.49 636.6 344.1 625.51 344.1"/><g class="cls-7"><polyline points="1065.86 479.62 1065.86 472.88 931.54 472.88 931.54 480.6 892.45 480.6 892.45 472.88 763.34 472.88 763.34 489.49"/></g><g class="cls-7"><polygon points="659.38 310.52 558.79 317.1 558.79 309.23 659.38 309.23 659.38 310.52"/></g><g class="cls-7"><path d="M931.29,430.7h-38.9c.05-.22.07-.45.12-.68,1.13,1.72.35,6,.35,8v6.35C905.62,439.87,918.52,435.18,931.29,430.7Z"/></g><g class="cls-7"><path d="M934.73,546.52c0,.92.55,1.19.55,2.11.26.36-.33.73-.77.8-11.18,1.72-23.83,4.76-35.15,4.76V547Z"/></g><g class="cls-7"><path d="M934.73,576.61c0,.92.55,1.19.55,2.11.26.36-.33.72-.77.79-11.18,1.73-23.83,4.77-35.15,4.77v-7.21Z"/></g><g class="cls-7"><path d="M934.73,604.74c0,.92.55,1.19.55,2.11.26.36-.33.73-.77.79-11.18,1.73-23.83,4.77-35.15,4.77V605.2Z"/></g><g class="cls-7"><path d="M934.73,634c0,.92.55,1.19.55,2.11.26.36-.33.73-.77.8-11.18,1.72-23.83,4.76-35.15,4.76v-7.21Z"/></g><g class="cls-7"><path d="M934.73,664.51c0,.92.55,1.19.55,2.11.26.36-.33.72-.77.79-11.18,1.72-23.83,4.77-35.15,4.77V665Z"/></g><g class="cls-7"><path d="M876.14,546.52c0,.92.54,1.19.54,2.11.26.36-.32.73-.76.8-11.18,1.72-23.83,4.76-35.15,4.76V547Z"/></g><g class="cls-7"><path d="M876.14,576.61c0,.92.54,1.19.54,2.11.26.36-.32.72-.76.79-11.18,1.73-23.83,4.77-35.15,4.77v-7.21Z"/></g><g class="cls-7"><path d="M876.14,604.74c0,.92.54,1.19.54,2.11.26.36-.32.73-.76.79-11.18,1.73-23.83,4.77-35.15,4.77V605.2Z"/></g><g class="cls-7"><path d="M876.14,634c0,.92.54,1.19.54,2.11.26.36-.32.73-.76.8-11.18,1.72-23.83,4.76-35.15,4.76v-7.21Z"/></g><g class="cls-7"><path d="M876.14,664.51c0,.92.54,1.19.54,2.11.26.36-.32.72-.76.79-11.18,1.72-23.83,4.77-35.15,4.77V665Z"/></g><g class="cls-7"><path d="M995.29,546.52c0,.92.54,1.19.54,2.11.26.36-.32.73-.76.8-11.18,1.72-23.83,4.76-35.15,4.76V547Z"/></g><g class="cls-7"><path d="M995.29,576.61c0,.92.54,1.19.54,2.11.26.36-.32.72-.76.79-11.18,1.73-23.83,4.77-35.15,4.77v-7.21Z"/></g><g class="cls-7"><path d="M995.29,604.74c0,.92.54,1.19.54,2.11.26.36-.32.73-.76.79-11.18,1.73-23.83,4.77-35.15,4.77V605.2Z"/></g><g class="cls-7"><path d="M995.29,634c0,.92.54,1.19.54,2.11.26.36-.32.73-.76.8-11.18,1.72-23.83,4.76-35.15,4.76v-7.21Z"/></g><g class="cls-7"><path d="M995.29,664.51c0,.92.54,1.19.54,2.11.26.36-.32.72-.76.79-11.18,1.72-23.83,4.77-35.15,4.77V665Z"/></g><g class="cls-7"><path d="M804.79,424.38a88,88,0,0,1,7.13-8.53H659.38v18.09c-.08,0,.31.51.23.51,7.51-1.45,15.38-2.64,23-3.52,7.15-.84,14.35-1.16,21.52-1.79,8.29-.73,16.54-1.86,24.81-2.76A439,439,0,0,1,804.79,424.38Z"/></g><g class="cls-7"><path d="M791.66,527.39s-1.23-25.11,8.19-24c3.43.64,4.82,4.36,4.82,4.36S796,499.22,791.66,527.39Z"/></g><g class="cls-7"><path d="M851,527.39s-1.23-25.11,8.19-24c3.43.64,4.82,4.36,4.82,4.36S855.4,499.22,851,527.39Z"/></g><g class="cls-7"><path d="M909.52,527.39s-1.22-25.11,8.2-24c3.43.64,4.82,4.36,4.82,4.36S913.89,499.22,909.52,527.39Z"/></g><g class="cls-7"><path d="M968.24,527.39s-1.23-25.11,8.19-24c3.44.64,4.82,4.36,4.82,4.36S972.6,499.22,968.24,527.39Z"/></g><g class="cls-7"><path d="M1031.32,527.39s-1.23-25.11,8.19-24c3.43.64,4.82,4.36,4.82,4.36S1035.68,499.22,1031.32,527.39Z"/></g><g class="cls-7"><path d="M680.43,460.15s-1.22-25.11,8.19-24c3.44.64,4.82,4.37,4.82,4.37S684.79,432,680.43,460.15Z"/></g><g class="cls-7"><path d="M516.42,460.15s-1.23-25.07,8.19-24c3.43.64,4.82,4.35,4.82,4.35S520.78,432,516.42,460.15Z"/></g><g class="cls-7"><path d="M447.72,460.15s-1.23-25.07,8.19-24c3.43.64,4.82,4.35,4.82,4.35S452.08,432,447.72,460.15Z"/></g><g class="cls-7"><path d="M382.18,460.15s-1.22-25.07,8.19-24c3.44.64,4.83,4.35,4.83,4.35S386.55,432,382.18,460.15Z"/></g><g class="cls-7"><path d="M382.3,529.51s-1.23-25.08,8.19-24c3.43.64,4.82,4.35,4.82,4.35S386.66,501.38,382.3,529.51Z"/></g><g class="cls-7"><path d="M447.78,529.72s-1.23-25.07,8.19-24c3.43.64,4.82,4.35,4.82,4.35S452.14,501.59,447.78,529.72Z"/></g><g class="cls-7"><path d="M516.46,529.66s-1.23-25.07,8.19-24c3.44.64,4.82,4.36,4.82,4.36S520.82,501.53,516.46,529.66Z"/></g><g class="cls-7"><path d="M516.52,599.19s-1.23-25.07,8.19-24c3.43.64,4.82,4.35,4.82,4.35S520.88,571.06,516.52,599.19Z"/></g><g class="cls-7"><path d="M447.72,599.19s-1.23-25.07,8.19-24c3.43.64,4.82,4.35,4.82,4.35S452.08,571.06,447.72,599.19Z"/></g><g class="cls-7"><path d="M382.32,599.19s-1.23-25.07,8.19-24c3.44.64,4.82,4.35,4.82,4.35S386.68,571.06,382.32,599.19Z"/></g><g class="cls-7"><path d="M447.72,666.66s-1.23-25.08,8.19-24c3.43.64,4.82,4.36,4.82,4.36S452.08,638.52,447.72,666.66Z"/></g><g class="cls-7"><path d="M382.32,666.66s-1.23-25.08,8.19-24c3.44.64,4.82,4.36,4.82,4.36S386.68,638.52,382.32,666.66Z"/></g><g class="cls-7"><path d="M680.43,529.53s-1.22-25.11,8.19-24c3.44.64,4.82,4.36,4.82,4.36S684.79,501.35,680.43,529.53Z"/></g><g class="cls-7"><path d="M721,529.68s-1.22-25.11,8.19-24c3.44.64,4.83,4.36,4.83,4.36S725.37,501.51,721,529.68Z"/></g><g class="cls-7"><path d="M721,460.15s-1.22-25.11,8.19-24c3.44.64,4.83,4.37,4.83,4.37S725.37,432,721,460.15Z"/></g><g class="cls-7"><polygon points="558.79 416.54 558.79 420.9 344.45 430.4 344.45 416.54 558.79 416.54"/></g><g class="cls-7"><polygon points="535.06 342.44 426.67 342.44 426.67 347.53 535.06 343.9 535.06 342.44"/></g><g class="cls-7"><polygon points="535.06 356.37 426.67 356.37 423.14 359.97 533.43 357.86 535.06 356.37"/></g><g class="cls-7"><polygon points="400.74 398.36 378.98 398.36 376.59 400.54 398.28 400.47 400.74 398.36"/></g><g class="cls-7"><polygon points="466.33 398.36 444.57 398.36 442.18 400.54 463.87 400.47 466.33 398.36"/></g><g class="cls-7"><polygon points="535.01 398.36 513.25 398.36 510.87 400.54 532.56 400.47 535.01 398.36"/></g><g class="cls-7"><polygon points="699.01 398 677.64 398 675.29 400.19 696.6 400.11 699.01 398"/></g><g class="cls-7"><polygon points="400.79 383.09 378.75 383.09 378.71 386.43 400.79 384.76 400.79 383.09"/></g><g class="cls-7"><polygon points="466.6 383.09 444.56 383.09 444.52 386.43 466.6 384.76 466.6 383.09"/></g><g class="cls-7"><polygon points="535.06 383.09 513.01 383.09 512.98 386.43 535.06 384.76 535.06 383.09"/></g><g class="cls-7"><polygon points="698.6 383.09 677.55 383.09 677.52 386.43 698.6 384.76 698.6 383.09"/></g><g class="cls-7"><polygon points="739.6 383.09 718.01 383.09 717.98 386.43 739.6 384.76 739.6 383.09"/></g><rect class="cls-5" x="678.18" y="338.53" width="105.2" height="14.47"/><path class="cls-2" d="M784.67,354.29H676.89V337.24H784.67Zm-105.2-2.58H782.09V339.82H679.47Z"/><rect class="cls-2" x="693.24" y="338.92" width="2.58" height="12.89"/><rect class="cls-2" x="714.06" y="338.61" width="2.58" height="14.73"/><rect class="cls-2" x="733.96" y="338.61" width="2.58" height="15.03"/><rect class="cls-2" x="756.96" y="338.31" width="2.58" height="15.34"/><polygon class="cls-2" points="671.3 340.68 790.25 340.68 784.9 331.76 677.66 331.76 671.3 340.68"/><g class="cls-7"><polygon points="785.01 340.68 676.61 340.68 676.61 345.77 785.01 342.13 785.01 340.68"/></g><g class="cls-7"><polygon points="785.01 354.61 676.61 354.61 673.09 358.21 783.38 356.1 785.01 354.61"/></g><g class="cls-7"><polygon points="858.87 280.24 843.1 289.31 843.1 278.75 858.87 278.75 858.87 280.24"/></g><g class="cls-7"><polygon points="394.4 340.3 378.19 353.54 350.96 396.04 351.09 368.4 372.32 349.41 394.4 340.3"/></g><g class="cls-7"><polygon points="739.35 398 717.97 398 715.63 400.19 736.93 400.11 739.35 398"/></g></g></svg>